<svg width="261" height="144" viewBox="0 0 261 144" fill="none" xmlns="http://www.w3.org/2000/svg">
<path d="M36.316 117.257C35.5582 119.25 35.6623 121.447 36.6054 123.367C37.5484 125.287 39.2534 126.772 41.346 127.497C43.4386 128.222 45.748 128.127 47.7671 127.233C49.7862 126.339 51.3501 124.719 52.1155 122.729L65.5177 87.6775C68.1745 80.7371 73.0103 74.7425 79.3692 70.5068C85.728 66.271 93.3021 63.9993 101.064 63.9998H235.601L229.483 80.0002H114.834C111.727 80.001 108.696 80.9117 106.152 82.6087C103.608 84.3057 101.675 86.7067 100.614 89.4857C96.9352 99.1049 93.2553 108.725 89.5748 118.347C89.1575 119.435 89.0222 120.603 89.1803 121.752C89.3385 122.9 89.7854 123.995 90.4832 124.944C91.181 125.893 92.1091 126.668 93.1886 127.203C94.2682 127.737 95.4674 128.016 96.6844 128.016H211.124L205.003 144H22.717C6.96292 144 -3.99882 129.1 1.38802 115.013C13.6374 82.9913 25.8867 50.9685 38.1361 18.9442C40.2607 13.3926 44.1282 8.59718 49.2139 5.20831C54.2997 1.81945 60.3576 0.00114251 66.5661 0L260.077 0L253.96 16.0005H85.6384C82.533 16.0004 79.5028 16.9096 76.959 18.6047C74.4152 20.2998 72.4811 22.6986 71.419 25.4757C59.7187 56.0709 48.0177 86.6647 36.316 117.257Z" fill="#8997A7"/>
</svg>
