<svg width="24" height="24" viewBox="0 0 24 24" fill="none" xmlns="http://www.w3.org/2000/svg">
<path d="M12.5102 13.2139C12.5562 12.4139 12.9482 11.7079 13.5402 11.2079C14.1612 10.6917 14.9447 10.4119 15.7522 10.4179C16.6022 10.4179 17.3832 10.7179 17.9632 11.2079C18.5552 11.7079 18.9462 12.4139 18.9912 13.2129C19.0362 14.0359 18.7062 14.7989 18.1262 15.3659C17.4867 15.9751 16.6353 16.3115 15.7522 16.3039C14.8684 16.312 14.0162 15.9756 13.3762 15.3659C12.7962 14.7989 12.4652 14.0359 12.5102 13.2139ZM7.35021 14.8309C7.35621 15.1449 7.45621 15.7529 7.60621 16.2289C7.93086 17.2527 8.47444 18.1934 9.19921 18.9859C9.97672 19.842 10.9265 20.5239 11.9862 20.9869C13.1391 21.4951 14.3863 21.754 15.6462 21.7469C16.9058 21.7484 18.1517 21.4853 19.3032 20.9749C20.3615 20.5064 21.3102 19.8218 22.0882 18.9649C22.8132 18.1709 23.3565 17.2283 23.6802 16.2029C23.991 15.2096 24.0765 14.1595 23.9302 13.1289C23.7905 12.1415 23.4443 11.1946 22.9142 10.3499C22.4231 9.56436 21.796 8.87255 21.0622 8.30694H21.0642L13.5662 2.54994L13.5462 2.53494C13.0542 2.15694 12.2272 2.15894 11.6862 2.53694C11.1392 2.91894 11.0772 3.55194 11.5632 3.95194L11.5622 3.95294L14.6882 6.49594L5.15821 6.50594H5.14521C4.35721 6.50694 3.60021 7.02394 3.45021 7.67794C3.29621 8.34294 3.83021 8.89494 4.65021 8.89794V8.89994L9.48021 8.88994L0.860211 15.5069L0.826211 15.5319C0.013211 16.1539 -0.248789 17.1899 0.263211 17.8449C0.783211 18.5119 1.88821 18.5129 2.71021 17.8489L7.41421 13.9999C7.41421 13.9999 7.34421 14.5199 7.35021 14.8309ZM19.4402 16.5719C18.4702 17.5599 17.1142 18.1199 15.6452 18.1219C14.1752 18.1259 12.8182 17.5699 11.8482 16.5839C11.3899 16.1243 11.0365 15.571 10.8122 14.9619C10.6062 14.3891 10.5249 13.7788 10.5735 13.172C10.6221 12.5652 10.7996 11.9757 11.0942 11.4429C11.3871 10.9162 11.7785 10.4508 12.2472 10.0719C13.1892 9.30394 14.3882 8.88894 15.6432 8.88694C16.8992 8.88494 18.0982 9.29694 19.0412 10.0619C19.5212 10.4529 19.9112 10.9159 20.1932 11.4289C20.4846 11.9549 20.6624 12.536 20.7152 13.1349C20.7694 13.7488 20.6878 14.3671 20.4762 14.9459C20.2527 15.5563 19.8986 16.1111 19.4402 16.5719Z" fill="#B3BCC6"/>
</svg>
