<svg width="24" height="24" viewBox="0 0 24 24" fill="none" xmlns="http://www.w3.org/2000/svg">
<g clip-path="url(#clip0_204_31)">
<path d="M19.7494 0.300053H4.25063C3.69222 0.299312 3.13915 0.408752 2.62311 0.622104C2.10707 0.835456 1.63819 1.14853 1.24333 1.54338C0.848477 1.93824 0.535407 2.40711 0.322055 2.92316C0.108704 3.4392 -0.000736699 3.99227 3.7321e-06 4.55068V19.4494C-0.000736699 20.0078 0.108704 20.5609 0.322055 21.0769C0.535407 21.593 0.848477 22.0619 1.24333 22.4567C1.63819 22.8516 2.10707 23.1646 2.62311 23.378C3.13915 23.5914 3.69222 23.7008 4.25063 23.7001H19.7494C20.3078 23.7008 20.8609 23.5914 21.3769 23.378C21.8929 23.1646 22.3618 22.8516 22.7567 22.4567C23.1515 22.0619 23.4646 21.593 23.678 21.0769C23.8913 20.5609 24.0007 20.0078 24 19.4494V4.55068C24.0007 3.99227 23.8913 3.4392 23.678 2.92316C23.4646 2.40711 23.1515 1.93824 22.7567 1.54338C22.3618 1.14853 21.8929 0.835456 21.3769 0.622104C20.8609 0.408752 20.3078 0.299312 19.7494 0.300053ZM14.67 16.8001H12.5794C12.5441 16.8027 12.5091 16.7932 12.48 16.7731C12.451 16.7529 12.4298 16.7234 12.42 16.6894L11.6006 14.3007H7.875L7.125 16.6501C7.11681 16.6926 7.09306 16.7306 7.0584 16.7566C7.02374 16.7826 6.98064 16.7947 6.9375 16.7907H5.0625C4.95375 16.7907 4.92375 16.7307 4.95375 16.6032L8.16 7.34068C8.19 7.23943 8.22 7.13068 8.25938 7.01068C8.30037 6.79625 8.32047 6.57836 8.31938 6.36005C8.31653 6.33487 8.32324 6.30953 8.33816 6.28905C8.35309 6.26857 8.37516 6.25443 8.4 6.24943H10.9894C11.07 6.24943 11.1094 6.27943 11.1206 6.33005L14.7694 16.6294C14.7994 16.7401 14.7694 16.7907 14.67 16.7907V16.8001ZM18.12 16.6876C18.12 16.7982 18.0806 16.8469 17.9906 16.8469H16.0294C16.0085 16.8485 15.9874 16.8454 15.9679 16.8378C15.9483 16.8302 15.9307 16.8184 15.9163 16.8031C15.9019 16.7878 15.8911 16.7695 15.8847 16.7495C15.8784 16.7295 15.8765 16.7083 15.8794 16.6876V8.97943C15.8794 8.88005 15.9206 8.84068 16.0106 8.84068H18C18.09 8.84068 18.1294 8.88943 18.1294 8.97943L18.12 16.6876ZM17.91 7.65005C17.7921 7.76983 17.65 7.86306 17.4932 7.92352C17.3363 7.98399 17.1684 8.01029 17.0006 8.00068C16.8363 8.0043 16.673 7.97516 16.52 7.91496C16.3671 7.85476 16.2277 7.7647 16.11 7.65005C15.8799 7.39997 15.7579 7.06906 15.7706 6.72943C15.7636 6.56467 15.7916 6.40029 15.8526 6.24711C15.9137 6.09392 16.0065 5.95541 16.125 5.84068C16.3646 5.61303 16.6833 5.48732 17.0138 5.49005C17.1817 5.48137 17.3497 5.50809 17.5067 5.5685C17.6636 5.6289 17.8062 5.72163 17.925 5.84068C18.146 6.08298 18.2643 6.40161 18.255 6.72943C18.2617 6.89812 18.2346 7.06646 18.1754 7.22455C18.1162 7.38265 18.0259 7.52731 17.91 7.65005ZM11.0006 12.2701H8.46C8.61 11.8501 8.76 11.3794 8.90063 10.8694C9.04125 10.3594 9.21 9.87005 9.36 9.39005C9.49659 8.96657 9.60989 8.53593 9.69938 8.10005H9.72C9.78938 8.34005 9.86063 8.60068 9.93938 8.88005C10.0181 9.15943 10.11 9.45943 10.2094 9.77068C10.3088 10.0819 10.3969 10.3801 10.5 10.6894C10.6031 10.9988 10.6875 11.2801 10.77 11.5501C10.8525 11.8201 10.9406 12.0601 11.0006 12.2701Z" fill="#B3BCC6"/>
</g>
<defs>
<clipPath id="clip0_204_31">
<rect width="24" height="24" fill="white"/>
</clipPath>
</defs>
</svg>
