<svg width="212" height="71" viewBox="0 0 212 71" fill="none" xmlns="http://www.w3.org/2000/svg">
<g clip-path="url(#clip0_2005_230)">
<path d="M21.1865 70.0253C9.81459 70.0253 0 63.3198 0 49.7133H11.2733C11.2733 56.1286 15.9378 59.4331 21.1865 59.4331C26.3364 59.4331 30.9063 56.4207 30.9063 48.9376V0H42.2781V49.9069C42.2763 64.1942 32.2662 70.0253 21.1865 70.0253Z" fill="#B3BCC6"/>
<path d="M57.8714 14.3152C53.9845 14.3152 50.6802 11.1077 50.6802 7.12423C50.6802 3.23748 53.9845 0.0296631 57.8714 0.0296631C61.8568 0.0296631 64.9658 3.23748 64.9658 7.12423C64.9658 11.1077 61.8549 14.3152 57.8714 14.3152ZM52.5259 20.744H63.217V69.7108H52.5259V20.744Z" fill="#B3BCC6"/>
<path d="M90.2456 69.9025C80.9149 69.9025 73.6268 64.7506 73.6268 53.7693V7.3125H84.3177V20.8222H96.0785V30.3464H84.3177V52.0186C84.3177 58.0449 86.9412 60.1827 92.4821 60.1827C94.523 60.1827 96.6608 59.8906 98.2163 59.3083V68.8326C96.0766 69.5136 93.5499 69.9025 90.2456 69.9025Z" fill="#B3BCC6"/>
<path d="M102.414 53.7693C102.414 64.7506 109.702 69.9025 119.033 69.9025C122.337 69.9025 124.864 69.5136 127.004 68.8326V59.3083C125.448 59.8906 123.31 60.1827 121.269 60.1827C115.728 60.1827 113.105 58.0449 113.105 52.0186V30.3464H126.912V20.8222H113.105V7.3125H102.414V53.7693Z" fill="#B3BCC6"/>
<path d="M153.946 19.9645C166.679 19.9645 177.369 28.419 177.369 44.0665C177.369 45.1362 177.369 46.0107 177.273 47.5643H139.077C139.562 55.5333 145.978 60.7821 154.043 60.7821C160.846 60.7821 165.415 57.6711 167.942 53.3956L176.106 59.2266C171.732 66.1274 164.152 70.4998 153.946 70.4998C139.174 70.4998 128.581 60.0042 128.581 45.2312C128.579 30.9474 139.174 19.9645 153.946 19.9645ZM139.562 39.7909H166.58C165.413 32.7933 159.778 29.0033 153.556 29.0033C147.334 29.0033 141.019 32.5997 139.562 39.7909Z" fill="#B3BCC6"/>
<path d="M183.801 21.0083H194.492V29.6581C196.338 24.1192 201.782 20.5226 207.321 20.5226C208.681 20.5226 210.043 20.6194 211.5 20.9115V31.8946C209.654 31.3121 208.099 31.02 206.154 31.02C200.031 31.02 194.492 36.1702 194.492 45.8898V69.603H183.801V21.0083Z" fill="#B3BCC6"/>
</g>
<defs>
<clipPath id="clip0_2005_230">
<rect width="212" height="71" fill="white"/>
</clipPath>
</defs>
</svg>
