<svg width="800" height="800" viewBox="0 0 800 800" fill="none" xmlns="http://www.w3.org/2000/svg">
<g clip-path="url(#clip0_489_322)">
<path d="M9.80328 492.182C8.02328 484.594 17.0631 479.815 22.5743 485.326L314.674 777.425C320.185 782.937 315.406 791.976 307.818 790.196C160.412 755.617 44.3823 639.588 9.80328 492.182ZM0.0151308 375.113C-0.126019 377.379 0.726108 379.592 2.3317 381.197L418.802 797.668C420.408 799.273 422.621 800.128 424.887 799.985C443.841 798.804 462.438 796.304 480.586 792.577C486.702 791.321 488.827 783.807 484.412 779.393L20.6076 315.588C16.1927 311.173 8.67824 313.297 7.42221 319.413C3.69489 337.562 1.19565 356.159 0.0151308 375.113ZM33.6874 237.643C32.3555 240.634 33.0339 244.128 35.3486 246.443L553.557 764.651C555.872 766.966 559.366 767.645 562.357 766.313C576.646 759.948 590.494 752.771 603.841 744.841C608.258 742.217 608.939 736.147 605.306 732.515L67.4853 194.694C63.8526 191.061 57.7836 191.742 55.1594 196.159C47.2288 209.506 40.0519 223.354 33.6874 237.643ZM101.27 144.592C98.3088 141.631 98.1256 136.882 100.915 133.759C174.236 51.6745 280.891 0 399.615 0C620.742 0 800 179.258 800 400.385C800 519.109 748.326 625.764 666.241 699.085C663.118 701.874 658.369 701.691 655.407 698.73L101.27 144.592Z" fill="#B3BCC6"/>
</g>
<defs>
<clipPath id="clip0_489_322">
<rect width="800" height="800" fill="white"/>
</clipPath>
</defs>
</svg>
