<svg width="24" height="24" viewBox="0 0 24 24" fill="none" xmlns="http://www.w3.org/2000/svg">
<path d="M11.7119 3.44997C11.799 3.33392 11.8505 3.19509 11.8603 3.05033C11.87 2.90557 11.8376 2.76109 11.7669 2.63439C11.6962 2.5077 11.5902 2.40423 11.4619 2.33653C11.3336 2.26883 11.1884 2.23981 11.0439 2.25297C5.62988 2.74697 2.60788 7.00497 2.27988 11.358C1.95188 15.719 4.31688 20.333 9.73088 21.524C15.4169 22.774 21.2029 18.687 21.7469 12.878C21.7604 12.7342 21.7321 12.5895 21.6654 12.4614C21.5987 12.3332 21.4964 12.2271 21.3709 12.1557C21.2453 12.0843 21.1018 12.0507 20.9575 12.0589C20.8133 12.0671 20.6745 12.1168 20.5579 12.202C17.7209 14.271 14.4779 13.518 12.4219 11.478C10.3679 9.43897 9.62188 6.23897 11.7119 3.44997Z" fill="#B3BCC6"/>
</svg>
