<svg width="24" height="24" viewBox="0 0 24 24" fill="none" xmlns="http://www.w3.org/2000/svg">
<path d="M16.9999 16.47V7.38995L10.9999 11.93M2.2199 9.18995C2.07517 9.03456 1.99306 8.83111 1.98936 8.61879C1.98567 8.40647 2.06066 8.20029 2.1999 8.03995L3.3999 6.92995C3.5999 6.74995 4.0899 6.66995 4.4499 6.92995L7.8699 9.53995L15.7999 2.28995C16.1199 1.96995 16.6699 1.83995 17.2999 2.16995L21.2999 4.07995C21.6599 4.28995 21.9999 4.61995 21.9999 5.22995V18.73C21.9999 19.13 21.7099 19.56 21.3999 19.73L16.9999 21.83C16.6799 21.96 16.0799 21.84 15.8699 21.63L7.8499 14.33L4.4499 16.93C4.0699 17.19 3.5999 17.12 3.3999 16.93L2.1999 15.83C1.8799 15.5 1.9199 14.96 2.2499 14.63L5.2499 11.93" fill="#B3BCC6"/>
</svg>
